<svg width="289" height="53" viewBox="0 0 289 53" fill="none" xmlns="http://www.w3.org/2000/svg">
<path d="M84.32 21.19H88.33V14.52C88.33 10.41 91.5 8.35 94.26 8.35C95.39 8.35 96.64 8.56 98.31 9.48L97.02 12.38C97.02 12.38 95.85 11.62 94.76 11.62C92.88 11.62 91.84 12.84 91.84 14.73V21.19H96.85V24.38H91.84V40.58H88.33V24.38H84.32V21.19V21.19Z" fill="#46484A"/>
<path d="M118.53 30.89C118.53 36.6 114.27 41.09 108.59 41.09C102.91 41.09 98.65 36.6 98.65 30.89C98.65 25.18 102.91 20.69 108.59 20.69C114.27 20.69 118.53 25.18 118.53 30.89ZM115.02 30.89C115.02 27.07 112.47 23.96 108.59 23.96C104.71 23.96 102.16 27.07 102.16 30.89C102.16 34.71 104.71 37.82 108.59 37.82C112.47 37.81 115.02 34.71 115.02 30.89Z" fill="#46484A"/>
<path d="M141.09 30.89C141.09 36.6 136.83 41.09 131.15 41.09C125.47 41.09 121.21 36.6 121.21 30.89C121.21 25.18 125.47 20.69 131.15 20.69C136.83 20.69 141.09 25.18 141.09 30.89ZM137.58 30.89C137.58 27.07 135.03 23.96 131.15 23.96C127.27 23.96 124.72 27.07 124.72 30.89C124.72 34.71 127.27 37.82 131.15 37.82C135.03 37.81 137.58 34.71 137.58 30.89Z" fill="#46484A"/>
<path d="M172.17 28.12V40.59H168.66V28.66C168.66 25.51 167.03 23.96 164.52 23.96C161.64 23.96 160.38 27.07 160.38 27.07V40.58H156.87V28.66C156.87 25.51 155.24 23.96 152.73 23.96C149.89 23.96 148.59 27.07 148.59 27.07V40.58H145.08V21.19H148.34V24.04C148.34 24.04 149.76 20.68 153.69 20.68C158.49 20.68 159.71 24.29 159.71 24.29C159.71 24.29 161.26 20.68 165.47 20.68C169.49 20.69 172.17 23.33 172.17 28.12Z" fill="#46484A"/>
<path d="M193.55 27.82V40.58H190.33V37.77C190.33 37.77 188.16 41.09 183.77 41.09C180.3 41.09 176.58 38.66 176.58 34.46C176.58 30.68 179.88 28 184.22 28C187.77 28 190.03 29.6 190.03 29.6V28.55C190.03 24.52 186.69 23.98 185.14 23.98C182.22 23.98 179.37 25.62 179.37 25.62L177.91 22.68C177.91 22.68 180.92 20.71 185.14 20.71C190.84 20.69 193.55 24.21 193.55 27.82ZM190.04 35.04V32.31C190.04 32.31 188.12 30.93 184.99 30.93C181.98 30.93 180.1 32.44 180.1 34.46C180.1 36.98 182.36 37.99 184.53 37.99C187.96 37.98 190.04 35.04 190.04 35.04Z" fill="#46484A"/>
<path d="M215.36 28.12V40.59H211.85V28.7C211.85 25.38 209.8 23.96 207.21 23.96C204.08 23.96 202.41 27.23 202.41 27.23V40.58H198.9V21.19H202.16V23.92C202.16 23.92 203.91 20.69 208.09 20.69C211.93 20.69 215.36 23.33 215.36 28.12Z" fill="#46484A"/>
<path d="M219.03 21.19H222.79V15.27H226.3V21.19H232.32V24.38H226.3V34.83C226.3 36.72 227.22 37.81 229.1 37.81C230.19 37.81 231.31 37.01 231.31 37.01L232.6 39.91C230.93 40.83 229.72 41.09 228.59 41.09C225.83 41.09 222.78 39.29 222.78 35V24.38H219.02V21.19H219.03Z" fill="#46484A"/>
<path d="M247.86 21.19L246.57 24.38C246.57 24.38 245.82 23.96 244.36 23.96C241.31 23.96 239.93 27.23 239.93 27.23V40.58H236.42V21.19H239.68V24.17C239.68 24.17 241.39 20.69 245.07 20.69C246.65 20.69 247.86 21.19 247.86 21.19Z" fill="#46484A"/>
<path d="M266.15 27.82V40.58H262.93V37.77C262.93 37.77 260.76 41.09 256.37 41.09C252.9 41.09 249.18 38.66 249.18 34.46C249.18 30.68 252.48 28 256.82 28C260.37 28 262.63 29.6 262.63 29.6V28.55C262.63 24.52 259.29 23.98 257.74 23.98C254.82 23.98 251.97 25.62 251.97 25.62L250.51 22.68C250.51 22.68 253.52 20.71 257.74 20.71C263.44 20.69 266.15 24.21 266.15 27.82ZM262.65 35.04V32.31C262.65 32.31 260.73 30.93 257.6 30.93C254.59 30.93 252.71 32.44 252.71 34.46C252.71 36.98 254.97 37.99 257.14 37.99C260.56 37.98 262.65 35.04 262.65 35.04Z" fill="#46484A"/>
<path d="M48.35 52C62.4333 52 73.85 40.5833 73.85 26.5C73.85 12.4167 62.4333 1 48.35 1C34.2667 1 22.85 12.4167 22.85 26.5C22.85 40.5833 34.2667 52 48.35 52Z" fill="#F06A36"/>
<path d="M57.05 10.95L70.74 24.63L57.05 38.32L44.61 25.88L39.64 30.85L30.93 22.15L39.64 13.44L57.05 30.85L63.27 24.63L57.05 18.41L52.08 23.39L50.83 22.15L57.05 15.93L65.76 24.63L57.05 33.34L39.64 15.93L33.42 22.15L39.64 28.37L44.61 23.39L57.05 35.83L68.25 24.63L57.05 13.44L50.83 19.66L49.59 18.41L57.05 10.95Z" fill="white"/>
<path d="M28.44 22.15L39.64 33.34L44.61 28.37L45.86 29.61L40.88 34.59L47.1 40.8L45.86 42.05L25.96 22.15L35.91 12.2L37.15 13.44L28.44 22.15Z" fill="white"/>
</svg>
